<mxfile host="app.diagrams.net" modified="2023-03-13T14:34:56.817Z" agent="5.0 (Windows NT 10.0; Win64; x64) AppleWebKit/537.36 (KHTML, like Gecko) Chrome/111.0.0.0 Safari/537.36" etag="SwtDGHjTccx8gYCdL4Co" version="21.0.6" type="github">
  <diagram id="R2lEEEUBdFMjLlhIrx00" name="Page-1">
    <mxGraphModel dx="900" dy="978" grid="1" gridSize="10" guides="1" tooltips="1" connect="1" arrows="1" fold="1" page="1" pageScale="1" pageWidth="850" pageHeight="1100" math="0" shadow="0" extFonts="Permanent Marker^https://fonts.googleapis.com/css?family=Permanent+Marker">
      <root>
        <mxCell id="0" />
        <mxCell id="1" parent="0" />
        <mxCell id="7TTEI9mDdfezxJjzgfj3-1" value="" style="edgeStyle=orthogonalEdgeStyle;rounded=0;orthogonalLoop=1;jettySize=auto;html=1;" edge="1" parent="1" source="7TTEI9mDdfezxJjzgfj3-6" target="7TTEI9mDdfezxJjzgfj3-7">
          <mxGeometry relative="1" as="geometry" />
        </mxCell>
        <mxCell id="7TTEI9mDdfezxJjzgfj3-2" value="" style="edgeStyle=orthogonalEdgeStyle;rounded=0;orthogonalLoop=1;jettySize=auto;html=1;" edge="1" parent="1" source="7TTEI9mDdfezxJjzgfj3-6" target="7TTEI9mDdfezxJjzgfj3-8">
          <mxGeometry relative="1" as="geometry" />
        </mxCell>
        <mxCell id="7TTEI9mDdfezxJjzgfj3-4" value="" style="edgeStyle=orthogonalEdgeStyle;rounded=0;orthogonalLoop=1;jettySize=auto;html=1;" edge="1" parent="1" source="7TTEI9mDdfezxJjzgfj3-6" target="7TTEI9mDdfezxJjzgfj3-10">
          <mxGeometry relative="1" as="geometry" />
        </mxCell>
        <mxCell id="7TTEI9mDdfezxJjzgfj3-64" style="edgeStyle=orthogonalEdgeStyle;rounded=0;orthogonalLoop=1;jettySize=auto;html=1;" edge="1" parent="1" source="7TTEI9mDdfezxJjzgfj3-6" target="7TTEI9mDdfezxJjzgfj3-9">
          <mxGeometry relative="1" as="geometry" />
        </mxCell>
        <mxCell id="7TTEI9mDdfezxJjzgfj3-66" style="edgeStyle=orthogonalEdgeStyle;rounded=0;orthogonalLoop=1;jettySize=auto;html=1;exitX=0.5;exitY=1;exitDx=0;exitDy=0;" edge="1" parent="1" source="7TTEI9mDdfezxJjzgfj3-6" target="7TTEI9mDdfezxJjzgfj3-12">
          <mxGeometry relative="1" as="geometry" />
        </mxCell>
        <mxCell id="7TTEI9mDdfezxJjzgfj3-6" value="BUS" style="whiteSpace=wrap;html=1;align=center;rotation=0;" vertex="1" parent="1">
          <mxGeometry x="1090" y="130" width="100" height="40" as="geometry" />
        </mxCell>
        <mxCell id="7TTEI9mDdfezxJjzgfj3-7" value="couch type" style="ellipse;whiteSpace=wrap;html=1;align=center;" vertex="1" parent="1">
          <mxGeometry x="960" y="40" width="100" height="40" as="geometry" />
        </mxCell>
        <mxCell id="7TTEI9mDdfezxJjzgfj3-9" value="source" style="ellipse;whiteSpace=wrap;html=1;align=center;" vertex="1" parent="1">
          <mxGeometry x="1090" y="40" width="100" height="40" as="geometry" />
        </mxCell>
        <mxCell id="7TTEI9mDdfezxJjzgfj3-11" style="edgeStyle=orthogonalEdgeStyle;rounded=0;orthogonalLoop=1;jettySize=auto;html=1;entryX=0.444;entryY=0.25;entryDx=0;entryDy=0;entryPerimeter=0;" edge="1" parent="1" source="7TTEI9mDdfezxJjzgfj3-12" target="7TTEI9mDdfezxJjzgfj3-21">
          <mxGeometry relative="1" as="geometry" />
        </mxCell>
        <mxCell id="7TTEI9mDdfezxJjzgfj3-12" value="Has" style="shape=rhombus;perimeter=rhombusPerimeter;whiteSpace=wrap;html=1;align=center;" vertex="1" parent="1">
          <mxGeometry x="1080" y="240" width="120" height="60" as="geometry" />
        </mxCell>
        <mxCell id="7TTEI9mDdfezxJjzgfj3-13" value="" style="edgeStyle=orthogonalEdgeStyle;rounded=0;orthogonalLoop=1;jettySize=auto;html=1;" edge="1" parent="1" source="7TTEI9mDdfezxJjzgfj3-21" target="7TTEI9mDdfezxJjzgfj3-22">
          <mxGeometry relative="1" as="geometry" />
        </mxCell>
        <mxCell id="7TTEI9mDdfezxJjzgfj3-67" style="edgeStyle=orthogonalEdgeStyle;rounded=0;orthogonalLoop=1;jettySize=auto;html=1;" edge="1" parent="1" source="7TTEI9mDdfezxJjzgfj3-21" target="7TTEI9mDdfezxJjzgfj3-27">
          <mxGeometry relative="1" as="geometry" />
        </mxCell>
        <mxCell id="7TTEI9mDdfezxJjzgfj3-68" style="edgeStyle=orthogonalEdgeStyle;rounded=0;orthogonalLoop=1;jettySize=auto;html=1;" edge="1" parent="1" source="7TTEI9mDdfezxJjzgfj3-21" target="7TTEI9mDdfezxJjzgfj3-29">
          <mxGeometry relative="1" as="geometry" />
        </mxCell>
        <mxCell id="7TTEI9mDdfezxJjzgfj3-70" style="edgeStyle=orthogonalEdgeStyle;rounded=0;orthogonalLoop=1;jettySize=auto;html=1;entryX=0.5;entryY=0;entryDx=0;entryDy=0;" edge="1" parent="1" source="7TTEI9mDdfezxJjzgfj3-21" target="7TTEI9mDdfezxJjzgfj3-32">
          <mxGeometry relative="1" as="geometry" />
        </mxCell>
        <mxCell id="7TTEI9mDdfezxJjzgfj3-71" style="edgeStyle=orthogonalEdgeStyle;rounded=0;orthogonalLoop=1;jettySize=auto;html=1;entryX=0.5;entryY=1;entryDx=0;entryDy=0;" edge="1" parent="1" source="7TTEI9mDdfezxJjzgfj3-21" target="7TTEI9mDdfezxJjzgfj3-24">
          <mxGeometry relative="1" as="geometry" />
        </mxCell>
        <mxCell id="7TTEI9mDdfezxJjzgfj3-74" style="edgeStyle=orthogonalEdgeStyle;rounded=0;orthogonalLoop=1;jettySize=auto;html=1;" edge="1" parent="1" source="7TTEI9mDdfezxJjzgfj3-21" target="7TTEI9mDdfezxJjzgfj3-28">
          <mxGeometry relative="1" as="geometry" />
        </mxCell>
        <mxCell id="7TTEI9mDdfezxJjzgfj3-85" style="edgeStyle=orthogonalEdgeStyle;rounded=0;orthogonalLoop=1;jettySize=auto;html=1;entryX=0.5;entryY=1;entryDx=0;entryDy=0;" edge="1" parent="1" source="7TTEI9mDdfezxJjzgfj3-21" target="7TTEI9mDdfezxJjzgfj3-83">
          <mxGeometry relative="1" as="geometry" />
        </mxCell>
        <mxCell id="7TTEI9mDdfezxJjzgfj3-21" value="PASSENGER" style="whiteSpace=wrap;html=1;align=center;" vertex="1" parent="1">
          <mxGeometry x="1460" y="260" width="90" height="40" as="geometry" />
        </mxCell>
        <mxCell id="7TTEI9mDdfezxJjzgfj3-22" value="ticket no" style="ellipse;whiteSpace=wrap;html=1;align=center;fontStyle=4;" vertex="1" parent="1">
          <mxGeometry x="1550" y="40" width="100" height="40" as="geometry" />
        </mxCell>
        <mxCell id="7TTEI9mDdfezxJjzgfj3-24" value="gender" style="ellipse;whiteSpace=wrap;html=1;align=center;" vertex="1" parent="1">
          <mxGeometry x="1580" y="190" width="100" height="40" as="geometry" />
        </mxCell>
        <mxCell id="7TTEI9mDdfezxJjzgfj3-25" value="address" style="ellipse;whiteSpace=wrap;html=1;align=center;" vertex="1" parent="1">
          <mxGeometry x="1910" y="520" width="100" height="40" as="geometry" />
        </mxCell>
        <mxCell id="7TTEI9mDdfezxJjzgfj3-26" value="journey date" style="ellipse;whiteSpace=wrap;html=1;align=center;" vertex="1" parent="1">
          <mxGeometry x="1880" y="320" width="100" height="40" as="geometry" />
        </mxCell>
        <mxCell id="7TTEI9mDdfezxJjzgfj3-27" value="name" style="ellipse;whiteSpace=wrap;html=1;align=center;" vertex="1" parent="1">
          <mxGeometry x="1550" y="340" width="100" height="40" as="geometry" />
        </mxCell>
        <mxCell id="7TTEI9mDdfezxJjzgfj3-28" value="pnr no" style="ellipse;whiteSpace=wrap;html=1;align=center;fontStyle=4;" vertex="1" parent="1">
          <mxGeometry x="1400" y="330" width="100" height="40" as="geometry" />
        </mxCell>
        <mxCell id="7TTEI9mDdfezxJjzgfj3-29" value="contact no" style="ellipse;shape=doubleEllipse;margin=3;whiteSpace=wrap;html=1;align=center;" vertex="1" parent="1">
          <mxGeometry x="1430" y="70" width="100" height="40" as="geometry" />
        </mxCell>
        <mxCell id="7TTEI9mDdfezxJjzgfj3-31" style="edgeStyle=orthogonalEdgeStyle;rounded=0;orthogonalLoop=1;jettySize=auto;html=1;" edge="1" parent="1" source="7TTEI9mDdfezxJjzgfj3-32" target="7TTEI9mDdfezxJjzgfj3-48">
          <mxGeometry relative="1" as="geometry" />
        </mxCell>
        <mxCell id="7TTEI9mDdfezxJjzgfj3-91" style="edgeStyle=orthogonalEdgeStyle;rounded=0;orthogonalLoop=1;jettySize=auto;html=1;" edge="1" parent="1" source="7TTEI9mDdfezxJjzgfj3-32" target="7TTEI9mDdfezxJjzgfj3-41">
          <mxGeometry relative="1" as="geometry" />
        </mxCell>
        <mxCell id="7TTEI9mDdfezxJjzgfj3-32" value="ask for" style="shape=rhombus;perimeter=rhombusPerimeter;whiteSpace=wrap;html=1;align=center;" vertex="1" parent="1">
          <mxGeometry x="1210" y="390" width="120" height="60" as="geometry" />
        </mxCell>
        <mxCell id="7TTEI9mDdfezxJjzgfj3-34" value="" style="edgeStyle=orthogonalEdgeStyle;rounded=0;orthogonalLoop=1;jettySize=auto;html=1;" edge="1" parent="1" source="7TTEI9mDdfezxJjzgfj3-41" target="7TTEI9mDdfezxJjzgfj3-52">
          <mxGeometry relative="1" as="geometry" />
        </mxCell>
        <mxCell id="7TTEI9mDdfezxJjzgfj3-35" value="" style="edgeStyle=orthogonalEdgeStyle;rounded=0;orthogonalLoop=1;jettySize=auto;html=1;" edge="1" parent="1" source="7TTEI9mDdfezxJjzgfj3-41" target="7TTEI9mDdfezxJjzgfj3-51">
          <mxGeometry relative="1" as="geometry" />
        </mxCell>
        <mxCell id="7TTEI9mDdfezxJjzgfj3-37" style="edgeStyle=orthogonalEdgeStyle;rounded=0;orthogonalLoop=1;jettySize=auto;html=1;entryX=0;entryY=0;entryDx=0;entryDy=0;" edge="1" parent="1" source="7TTEI9mDdfezxJjzgfj3-41" target="7TTEI9mDdfezxJjzgfj3-49">
          <mxGeometry relative="1" as="geometry" />
        </mxCell>
        <mxCell id="7TTEI9mDdfezxJjzgfj3-39" style="edgeStyle=orthogonalEdgeStyle;rounded=0;orthogonalLoop=1;jettySize=auto;html=1;entryX=0.5;entryY=0;entryDx=0;entryDy=0;" edge="1" parent="1" source="7TTEI9mDdfezxJjzgfj3-41" target="7TTEI9mDdfezxJjzgfj3-56">
          <mxGeometry relative="1" as="geometry" />
        </mxCell>
        <mxCell id="7TTEI9mDdfezxJjzgfj3-40" style="edgeStyle=orthogonalEdgeStyle;rounded=0;orthogonalLoop=1;jettySize=auto;html=1;" edge="1" parent="1" source="7TTEI9mDdfezxJjzgfj3-41" target="7TTEI9mDdfezxJjzgfj3-55">
          <mxGeometry relative="1" as="geometry" />
        </mxCell>
        <mxCell id="7TTEI9mDdfezxJjzgfj3-79" style="edgeStyle=orthogonalEdgeStyle;rounded=0;orthogonalLoop=1;jettySize=auto;html=1;exitX=0;exitY=0.5;exitDx=0;exitDy=0;entryX=0.5;entryY=1;entryDx=0;entryDy=0;" edge="1" parent="1" source="7TTEI9mDdfezxJjzgfj3-41" target="7TTEI9mDdfezxJjzgfj3-50">
          <mxGeometry relative="1" as="geometry" />
        </mxCell>
        <mxCell id="7TTEI9mDdfezxJjzgfj3-81" style="edgeStyle=orthogonalEdgeStyle;rounded=0;orthogonalLoop=1;jettySize=auto;html=1;entryX=0.5;entryY=0;entryDx=0;entryDy=0;" edge="1" parent="1" source="7TTEI9mDdfezxJjzgfj3-41" target="7TTEI9mDdfezxJjzgfj3-54">
          <mxGeometry relative="1" as="geometry" />
        </mxCell>
        <mxCell id="7TTEI9mDdfezxJjzgfj3-87" style="edgeStyle=orthogonalEdgeStyle;rounded=0;orthogonalLoop=1;jettySize=auto;html=1;entryX=0.5;entryY=1;entryDx=0;entryDy=0;" edge="1" parent="1" source="7TTEI9mDdfezxJjzgfj3-41" target="7TTEI9mDdfezxJjzgfj3-86">
          <mxGeometry relative="1" as="geometry" />
        </mxCell>
        <mxCell id="7TTEI9mDdfezxJjzgfj3-41" value="TICKET" style="whiteSpace=wrap;html=1;align=center;" vertex="1" parent="1">
          <mxGeometry x="1220" y="520" width="100" height="40" as="geometry" />
        </mxCell>
        <mxCell id="7TTEI9mDdfezxJjzgfj3-42" value="" style="edgeStyle=orthogonalEdgeStyle;rounded=0;orthogonalLoop=1;jettySize=auto;html=1;" edge="1" parent="1" source="7TTEI9mDdfezxJjzgfj3-48" target="7TTEI9mDdfezxJjzgfj3-57">
          <mxGeometry relative="1" as="geometry" />
        </mxCell>
        <mxCell id="7TTEI9mDdfezxJjzgfj3-43" style="edgeStyle=orthogonalEdgeStyle;rounded=0;orthogonalLoop=1;jettySize=auto;html=1;" edge="1" parent="1" source="7TTEI9mDdfezxJjzgfj3-48" target="7TTEI9mDdfezxJjzgfj3-58">
          <mxGeometry relative="1" as="geometry" />
        </mxCell>
        <mxCell id="7TTEI9mDdfezxJjzgfj3-44" style="edgeStyle=orthogonalEdgeStyle;rounded=0;orthogonalLoop=1;jettySize=auto;html=1;" edge="1" parent="1" source="7TTEI9mDdfezxJjzgfj3-48" target="7TTEI9mDdfezxJjzgfj3-26">
          <mxGeometry relative="1" as="geometry" />
        </mxCell>
        <mxCell id="7TTEI9mDdfezxJjzgfj3-45" style="edgeStyle=orthogonalEdgeStyle;rounded=0;orthogonalLoop=1;jettySize=auto;html=1;" edge="1" parent="1" source="7TTEI9mDdfezxJjzgfj3-48" target="7TTEI9mDdfezxJjzgfj3-59">
          <mxGeometry relative="1" as="geometry" />
        </mxCell>
        <mxCell id="7TTEI9mDdfezxJjzgfj3-47" style="edgeStyle=orthogonalEdgeStyle;rounded=0;orthogonalLoop=1;jettySize=auto;html=1;" edge="1" parent="1" source="7TTEI9mDdfezxJjzgfj3-48" target="7TTEI9mDdfezxJjzgfj3-25">
          <mxGeometry relative="1" as="geometry" />
        </mxCell>
        <mxCell id="7TTEI9mDdfezxJjzgfj3-82" style="edgeStyle=orthogonalEdgeStyle;rounded=0;orthogonalLoop=1;jettySize=auto;html=1;" edge="1" parent="1" source="7TTEI9mDdfezxJjzgfj3-48" target="7TTEI9mDdfezxJjzgfj3-60">
          <mxGeometry relative="1" as="geometry" />
        </mxCell>
        <mxCell id="7TTEI9mDdfezxJjzgfj3-48" value="RESERVATION" style="whiteSpace=wrap;html=1;align=center;" vertex="1" parent="1">
          <mxGeometry x="1760" y="420" width="100" height="40" as="geometry" />
        </mxCell>
        <mxCell id="7TTEI9mDdfezxJjzgfj3-49" value="source" style="ellipse;whiteSpace=wrap;html=1;align=center;" vertex="1" parent="1">
          <mxGeometry x="1430" y="720" width="100" height="40" as="geometry" />
        </mxCell>
        <mxCell id="7TTEI9mDdfezxJjzgfj3-50" value="departure time" style="ellipse;whiteSpace=wrap;html=1;align=center;" vertex="1" parent="1">
          <mxGeometry x="910" y="460" width="100" height="40" as="geometry" />
        </mxCell>
        <mxCell id="7TTEI9mDdfezxJjzgfj3-51" value="journey date" style="ellipse;whiteSpace=wrap;html=1;align=center;" vertex="1" parent="1">
          <mxGeometry x="930" y="570" width="100" height="40" as="geometry" />
        </mxCell>
        <mxCell id="7TTEI9mDdfezxJjzgfj3-52" value="gender" style="ellipse;whiteSpace=wrap;html=1;align=center;" vertex="1" parent="1">
          <mxGeometry x="1310" y="630" width="100" height="40" as="geometry" />
        </mxCell>
        <mxCell id="7TTEI9mDdfezxJjzgfj3-54" value="destination" style="ellipse;whiteSpace=wrap;html=1;align=center;" vertex="1" parent="1">
          <mxGeometry x="1090" y="630" width="100" height="40" as="geometry" />
        </mxCell>
        <mxCell id="7TTEI9mDdfezxJjzgfj3-55" value="ticket no" style="ellipse;whiteSpace=wrap;html=1;align=center;fontStyle=4;" vertex="1" parent="1">
          <mxGeometry x="1080" y="460" width="100" height="40" as="geometry" />
        </mxCell>
        <mxCell id="7TTEI9mDdfezxJjzgfj3-56" value="bus no" style="ellipse;whiteSpace=wrap;html=1;align=center;fontStyle=4;" vertex="1" parent="1">
          <mxGeometry x="1220" y="720" width="100" height="40" as="geometry" />
        </mxCell>
        <mxCell id="7TTEI9mDdfezxJjzgfj3-57" value="pnr no" style="ellipse;whiteSpace=wrap;html=1;align=center;fontStyle=4;" vertex="1" parent="1">
          <mxGeometry x="1710" y="320" width="100" height="40" as="geometry" />
        </mxCell>
        <mxCell id="7TTEI9mDdfezxJjzgfj3-58" value="bus no" style="ellipse;whiteSpace=wrap;html=1;align=center;fontStyle=4;" vertex="1" parent="1">
          <mxGeometry x="1760" y="580" width="100" height="40" as="geometry" />
        </mxCell>
        <mxCell id="7TTEI9mDdfezxJjzgfj3-59" value="contact no" style="ellipse;shape=doubleEllipse;margin=3;whiteSpace=wrap;html=1;align=center;" vertex="1" parent="1">
          <mxGeometry x="2050" y="420" width="100" height="40" as="geometry" />
        </mxCell>
        <mxCell id="7TTEI9mDdfezxJjzgfj3-60" value="no of seats" style="ellipse;whiteSpace=wrap;html=1;align=center;" vertex="1" parent="1">
          <mxGeometry x="1650" y="520" width="100" height="40" as="geometry" />
        </mxCell>
        <mxCell id="7TTEI9mDdfezxJjzgfj3-10" value="destination" style="ellipse;whiteSpace=wrap;html=1;align=center;" vertex="1" parent="1">
          <mxGeometry x="900" y="170" width="100" height="40" as="geometry" />
        </mxCell>
        <mxCell id="7TTEI9mDdfezxJjzgfj3-62" value="" style="edgeStyle=orthogonalEdgeStyle;rounded=0;orthogonalLoop=1;jettySize=auto;html=1;endArrow=none;" edge="1" parent="1" source="7TTEI9mDdfezxJjzgfj3-6" target="7TTEI9mDdfezxJjzgfj3-8">
          <mxGeometry relative="1" as="geometry">
            <mxPoint x="1620" y="100" as="sourcePoint" />
            <mxPoint x="1350" y="60" as="targetPoint" />
          </mxGeometry>
        </mxCell>
        <mxCell id="7TTEI9mDdfezxJjzgfj3-8" value="bus no" style="ellipse;whiteSpace=wrap;html=1;align=center;fontStyle=4;" vertex="1" parent="1">
          <mxGeometry x="1240" y="30" width="100" height="40" as="geometry" />
        </mxCell>
        <mxCell id="7TTEI9mDdfezxJjzgfj3-83" value="age" style="ellipse;whiteSpace=wrap;html=1;align=center;dashed=1;" vertex="1" parent="1">
          <mxGeometry x="1360" y="180" width="100" height="40" as="geometry" />
        </mxCell>
        <mxCell id="7TTEI9mDdfezxJjzgfj3-86" value="age" style="ellipse;whiteSpace=wrap;html=1;align=center;dashed=1;" vertex="1" parent="1">
          <mxGeometry x="1380" y="470" width="100" height="40" as="geometry" />
        </mxCell>
      </root>
    </mxGraphModel>
  </diagram>
</mxfile>
